<mxfile host="app.diagrams.net" modified="2024-04-24T09:21:27.039Z" agent="Mozilla/5.0 (Windows NT 10.0; Win64; x64) AppleWebKit/537.36 (KHTML, like Gecko) Chrome/124.0.0.0 Safari/537.36" etag="1Q89P6tDzA7cimLO45pf" version="24.2.8" type="device">
  <diagram name="Page-1" id="ME5liYDb20N2tlRm7pwM">
    <mxGraphModel dx="1221" dy="652" grid="1" gridSize="10" guides="1" tooltips="1" connect="1" arrows="1" fold="1" page="1" pageScale="1" pageWidth="850" pageHeight="1100" math="0" shadow="0">
      <root>
        <mxCell id="0" />
        <mxCell id="1" parent="0" />
        <mxCell id="-JhMhV9JrqBkahOhgtLi-1" value="" style="ellipse;html=1;shape=startState;fillColor=#000000;strokeColor=#ff0000;" parent="1" vertex="1">
          <mxGeometry x="200" y="80" width="30" height="30" as="geometry" />
        </mxCell>
        <mxCell id="-JhMhV9JrqBkahOhgtLi-2" value="" style="edgeStyle=orthogonalEdgeStyle;html=1;verticalAlign=bottom;endArrow=open;endSize=8;strokeColor=#ff0000;rounded=0;" parent="1" source="-JhMhV9JrqBkahOhgtLi-1" edge="1">
          <mxGeometry relative="1" as="geometry">
            <mxPoint x="215" y="170" as="targetPoint" />
          </mxGeometry>
        </mxCell>
        <mxCell id="-JhMhV9JrqBkahOhgtLi-5" value="" style="edgeStyle=orthogonalEdgeStyle;rounded=0;orthogonalLoop=1;jettySize=auto;html=1;" parent="1" source="-JhMhV9JrqBkahOhgtLi-3" target="-JhMhV9JrqBkahOhgtLi-4" edge="1">
          <mxGeometry relative="1" as="geometry" />
        </mxCell>
        <mxCell id="-JhMhV9JrqBkahOhgtLi-3" value="HCP requests a laboratory test for a patient" style="html=1;whiteSpace=wrap;" parent="1" vertex="1">
          <mxGeometry x="160" y="170" width="110" height="50" as="geometry" />
        </mxCell>
        <mxCell id="-JhMhV9JrqBkahOhgtLi-9" value="" style="edgeStyle=orthogonalEdgeStyle;rounded=0;orthogonalLoop=1;jettySize=auto;html=1;" parent="1" source="-JhMhV9JrqBkahOhgtLi-4" target="-JhMhV9JrqBkahOhgtLi-6" edge="1">
          <mxGeometry relative="1" as="geometry" />
        </mxCell>
        <mxCell id="-JhMhV9JrqBkahOhgtLi-4" value="HCP selects the tests needed" style="html=1;whiteSpace=wrap;" parent="1" vertex="1">
          <mxGeometry x="160" y="260" width="110" height="50" as="geometry" />
        </mxCell>
        <mxCell id="-JhMhV9JrqBkahOhgtLi-6" value="" style="rhombus;whiteSpace=wrap;html=1;fontColor=#000000;fillColor=#ffffc0;strokeColor=#ff0000;" parent="1" vertex="1">
          <mxGeometry x="175" y="340" width="80" height="40" as="geometry" />
        </mxCell>
        <mxCell id="-JhMhV9JrqBkahOhgtLi-7" value="[additional tests added later]" style="edgeStyle=orthogonalEdgeStyle;html=1;align=left;verticalAlign=bottom;endArrow=open;endSize=8;strokeColor=#ff0000;rounded=0;entryX=1;entryY=0.25;entryDx=0;entryDy=0;" parent="1" source="-JhMhV9JrqBkahOhgtLi-6" target="-JhMhV9JrqBkahOhgtLi-4" edge="1">
          <mxGeometry x="-1" relative="1" as="geometry">
            <mxPoint x="500" y="260" as="targetPoint" />
            <Array as="points">
              <mxPoint x="501" y="360" />
              <mxPoint x="501" y="273" />
            </Array>
          </mxGeometry>
        </mxCell>
        <mxCell id="-JhMhV9JrqBkahOhgtLi-8" value="[no additional tests added later]&amp;nbsp;" style="edgeStyle=orthogonalEdgeStyle;html=1;align=left;verticalAlign=top;endArrow=open;endSize=8;strokeColor=#ff0000;rounded=0;" parent="1" source="-JhMhV9JrqBkahOhgtLi-6" edge="1">
          <mxGeometry x="-1" relative="1" as="geometry">
            <mxPoint x="220" y="440" as="targetPoint" />
            <mxPoint as="offset" />
          </mxGeometry>
        </mxCell>
        <mxCell id="-JhMhV9JrqBkahOhgtLi-13" value="" style="edgeStyle=orthogonalEdgeStyle;rounded=0;orthogonalLoop=1;jettySize=auto;html=1;" parent="1" source="-JhMhV9JrqBkahOhgtLi-11" target="-JhMhV9JrqBkahOhgtLi-12" edge="1">
          <mxGeometry relative="1" as="geometry" />
        </mxCell>
        <mxCell id="-JhMhV9JrqBkahOhgtLi-11" value="Request sent to&amp;nbsp; laboratory staff for processing" style="html=1;whiteSpace=wrap;" parent="1" vertex="1">
          <mxGeometry x="160" y="440" width="110" height="50" as="geometry" />
        </mxCell>
        <mxCell id="-JhMhV9JrqBkahOhgtLi-15" value="" style="edgeStyle=orthogonalEdgeStyle;rounded=0;orthogonalLoop=1;jettySize=auto;html=1;" parent="1" source="-JhMhV9JrqBkahOhgtLi-12" target="-JhMhV9JrqBkahOhgtLi-14" edge="1">
          <mxGeometry relative="1" as="geometry" />
        </mxCell>
        <mxCell id="-JhMhV9JrqBkahOhgtLi-17" value="" style="edgeStyle=orthogonalEdgeStyle;rounded=0;orthogonalLoop=1;jettySize=auto;html=1;" parent="1" source="-JhMhV9JrqBkahOhgtLi-14" target="-JhMhV9JrqBkahOhgtLi-16" edge="1">
          <mxGeometry relative="1" as="geometry" />
        </mxCell>
        <mxCell id="-JhMhV9JrqBkahOhgtLi-14" value="Results entered into the system" style="html=1;whiteSpace=wrap;" parent="1" vertex="1">
          <mxGeometry x="730" y="670" width="110" height="50" as="geometry" />
        </mxCell>
        <mxCell id="-JhMhV9JrqBkahOhgtLi-19" value="" style="edgeStyle=orthogonalEdgeStyle;rounded=0;orthogonalLoop=1;jettySize=auto;html=1;" parent="1" source="-JhMhV9JrqBkahOhgtLi-16" target="-JhMhV9JrqBkahOhgtLi-18" edge="1">
          <mxGeometry relative="1" as="geometry" />
        </mxCell>
        <mxCell id="-JhMhV9JrqBkahOhgtLi-16" value="HCP notified" style="html=1;whiteSpace=wrap;" parent="1" vertex="1">
          <mxGeometry x="160" y="740" width="110" height="50" as="geometry" />
        </mxCell>
        <mxCell id="-JhMhV9JrqBkahOhgtLi-18" value="" style="ellipse;html=1;shape=endState;fillColor=#000000;strokeColor=#ff0000;" parent="1" vertex="1">
          <mxGeometry x="200" y="840" width="30" height="30" as="geometry" />
        </mxCell>
        <mxCell id="r10OtON0KDozDrB3Dx5i-1" value="HCP" style="swimlane;fontStyle=0;childLayout=stackLayout;horizontal=1;startSize=30;horizontalStack=0;resizeParent=1;resizeParentMax=0;resizeLast=0;collapsible=1;marginBottom=0;whiteSpace=wrap;html=1;" vertex="1" parent="1">
          <mxGeometry x="80" y="60" width="460" height="830" as="geometry" />
        </mxCell>
        <mxCell id="r10OtON0KDozDrB3Dx5i-14" value="Laboratory Staff" style="swimlane;fontStyle=0;childLayout=stackLayout;horizontal=1;startSize=30;horizontalStack=0;resizeParent=1;resizeParentMax=0;resizeLast=0;collapsible=1;marginBottom=0;whiteSpace=wrap;html=1;" vertex="1" parent="1">
          <mxGeometry x="540" y="60" width="460" height="830" as="geometry" />
        </mxCell>
        <mxCell id="r10OtON0KDozDrB3Dx5i-18" value="System" style="swimlane;fontStyle=0;childLayout=stackLayout;horizontal=1;startSize=30;horizontalStack=0;resizeParent=1;resizeParentMax=0;resizeLast=0;collapsible=1;marginBottom=0;whiteSpace=wrap;html=1;" vertex="1" parent="1">
          <mxGeometry x="1000" y="60" width="480" height="830" as="geometry" />
        </mxCell>
        <mxCell id="r10OtON0KDozDrB3Dx5i-38" value="" style="edgeStyle=orthogonalEdgeStyle;rounded=0;orthogonalLoop=1;jettySize=auto;html=1;" edge="1" parent="1" source="-JhMhV9JrqBkahOhgtLi-12" target="r10OtON0KDozDrB3Dx5i-37">
          <mxGeometry relative="1" as="geometry">
            <Array as="points">
              <mxPoint x="1070" y="555" />
              <mxPoint x="1070" y="590" />
            </Array>
          </mxGeometry>
        </mxCell>
        <mxCell id="-JhMhV9JrqBkahOhgtLi-12" value="Tests are conducted" style="html=1;whiteSpace=wrap;" parent="1" vertex="1">
          <mxGeometry x="640" y="530" width="290" height="50" as="geometry" />
        </mxCell>
        <mxCell id="r10OtON0KDozDrB3Dx5i-25" value="" style="html=1;whiteSpace=wrap;fillColor=none;" vertex="1" parent="1">
          <mxGeometry x="1000" y="90" width="480" height="800" as="geometry" />
        </mxCell>
        <mxCell id="r10OtON0KDozDrB3Dx5i-40" style="edgeStyle=orthogonalEdgeStyle;rounded=0;orthogonalLoop=1;jettySize=auto;html=1;entryX=1;entryY=0.75;entryDx=0;entryDy=0;" edge="1" parent="1" source="r10OtON0KDozDrB3Dx5i-37" target="-JhMhV9JrqBkahOhgtLi-14">
          <mxGeometry relative="1" as="geometry" />
        </mxCell>
        <mxCell id="r10OtON0KDozDrB3Dx5i-37" value="PDF file of the tests is created" style="rounded=0;whiteSpace=wrap;html=1;" vertex="1" parent="1">
          <mxGeometry x="1130" y="580" width="120" height="60" as="geometry" />
        </mxCell>
      </root>
    </mxGraphModel>
  </diagram>
</mxfile>
